<svg width="24" height="24" viewBox="0 0 24 24" fill="none" xmlns="http://www.w3.org/2000/svg">
<g id="icon/24/cup">
<path id="icon" d="M19.3636 0C19.6682 0 19.9591 0.132188 20.1682 0.364453C20.3727 0.596719 20.4773 0.9075 20.45 1.22156L18.8046 20.9156C18.6591 22.6594 17.2409 24 15.5046 24H7.9091C6.21228 24 4.79637 22.6594 4.65046 20.9156L3.00404 1.22156C2.97778 0.9075 3.08046 0.596719 3.2871 0.364453C3.49365 0.132188 3.78546 0 4.09092 0H19.3636ZM6.7641 6.95156C7.50001 7.37344 8.4091 7.29375 9.06819 6.75469C10.6227 5.47031 12.8318 5.47031 14.3864 6.75469C15.0046 7.29375 15.9136 7.37344 16.6909 6.95156L17.8364 6.29531L18.1727 2.20781H5.28001L5.61819 6.29531L6.7641 6.95156ZM5.8441 8.99531L6.8241 20.7234C6.87274 21.3047 7.34455 21.75 7.9091 21.75H15.5046C16.1091 21.75 16.5818 21.3047 16.6318 20.7234L17.6091 8.99531C16.1273 9.77344 14.3318 9.59062 13.0227 8.50781C12.2636 7.88438 11.1909 7.88438 10.4318 8.50781C9.12274 9.59062 7.32819 9.77344 5.8441 8.99531Z" fill="black"/>
</g>
</svg>
