<svg width="24" height="24" viewBox="0 0 24 24" fill="none" xmlns="http://www.w3.org/2000/svg">
<g id="icon/24/home">
<path id="icon" d="M14.6668 10.3334C14.6668 11.8042 13.4709 13.0001 12.0001 13.0001C10.5292 13.0001 9.3334 11.8042 9.3334 10.3334C9.3334 8.86254 10.5292 7.6667 12.0001 7.6667C13.4709 7.6667 14.6668 8.86254 14.6668 10.3334ZM13.3334 14.3334C15.1751 14.3334 16.6668 15.8251 16.6668 17.6668C16.6668 18.0334 16.3668 18.3334 16.0001 18.3334H8.00006C7.63339 18.3334 7.33339 18.0334 7.33339 17.6668C7.33339 15.8251 8.82506 14.3334 10.6667 14.3334H13.3334ZM11.3542 1.2375C11.7251 0.920833 12.2751 0.920833 12.6459 1.2375L23.646 10.5709C24.0668 10.9292 24.121 11.5584 23.7626 11.9792C23.4043 12.4001 22.7751 12.4542 22.3543 12.0959L21.3335 11.2292V19.0001C21.3335 20.8418 19.8418 22.3334 18.0001 22.3334H6.00005C4.1592 22.3334 2.6667 20.8418 2.6667 19.0001V11.2292L1.64711 12.0959C1.22586 12.4542 0.595019 12.4001 0.237517 11.9792C-0.119819 11.5584 -0.0680684 10.9292 0.353059 10.5709L11.3542 1.2375ZM4.66671 9.53338V19.0001C4.66671 19.7376 5.26254 20.3334 6.00005 20.3334H18.0001C18.7376 20.3334 19.3335 19.7376 19.3335 19.0001V9.53338L12.0001 3.31126L4.66671 9.53338Z" fill="black"/>
</g>
</svg>
