<svg width="24" height="24" viewBox="0 0 24 24" fill="none" xmlns="http://www.w3.org/2000/svg">
<g id="icon/24/location">
<path id="icon" d="M15.75 9C15.75 11.0719 14.0719 12.75 12 12.75C9.92812 12.75 8.25 11.0719 8.25 9C8.25 6.92812 9.92812 5.25 12 5.25C14.0719 5.25 15.75 6.92812 15.75 9ZM12 7.5C11.1703 7.5 10.5 8.17031 10.5 9C10.5 9.82969 11.1703 10.5 12 10.5C12.8297 10.5 13.5 9.82969 13.5 9C13.5 8.17031 12.8297 7.5 12 7.5ZM21 9C21 13.0969 15.5156 20.3906 13.1109 23.4C12.5344 24.1172 11.4656 24.1172 10.8891 23.4C8.44219 20.3906 3 13.0969 3 9C3 4.02938 7.02938 0 12 0C16.9688 0 21 4.02938 21 9ZM12 2.25C8.27344 2.25 5.25 5.27344 5.25 9C5.25 9.58125 5.46047 10.4812 5.96719 11.6812C6.45844 12.8438 7.15594 14.1281 7.95938 15.4266C9.29063 17.5922 10.8375 19.6453 12 21.1734C13.1625 19.6453 14.7094 17.5922 16.0406 15.4266C16.8422 14.1281 17.5406 12.8438 18.0328 11.6812C18.5391 10.4812 18.75 9.58125 18.75 9C18.75 5.27344 15.7266 2.25 12 2.25Z" fill="black"/>
</g>
</svg>
