<svg width="24" height="24" viewBox="0 0 24 24" fill="none" xmlns="http://www.w3.org/2000/svg">
<g id="icon/24/plug">
<path id="icon" d="M7.5 0C8.12344 0 8.625 0.503906 8.625 1.125V5.25H6.375V1.125C6.375 0.503906 6.87891 0 7.5 0ZM16.5 0C17.1234 0 17.625 0.503906 17.625 1.125V5.25H15.375V1.125C15.375 0.503906 15.8766 0 16.5 0ZM19.875 6.75C20.4984 6.75 21 7.25156 21 7.875C21 8.49844 20.4984 9 19.875 9H19.5V12C19.5 15.7594 16.6922 18.8719 13.125 19.4156V24H10.875V19.4156C7.26656 18.8719 4.5 15.7594 4.5 12V9H4.125C3.50391 9 3 8.49844 3 7.875C3 7.25156 3.50391 6.75 4.125 6.75H19.875ZM12 17.25C14.9016 17.25 17.25 14.9016 17.25 12V9H6.75V12C6.75 14.9016 9.09844 17.25 12 17.25Z" fill="black"/>
</g>
</svg>
