<svg width="24" height="24" viewBox="0 0 24 24" fill="none" xmlns="http://www.w3.org/2000/svg">
<path d="M18.6843 14.625C19.0675 14.3782 19.4821 14.0363 19.7925 13.5422C20.2884 12.6858 20.2391 11.8233 20.2104 11.3067C20.2094 11.2875 20.2081 11.2684 20.2068 11.2491C20.2143 11.238 20.2217 11.2269 20.2291 11.2157C20.5172 10.7391 20.9578 10.0078 20.9578 9C20.9578 7.99219 20.4764 7.26141 20.189 6.82453C20.1818 6.81345 20.1745 6.80247 20.1671 6.79157C20.1684 6.77244 20.1697 6.75339 20.1707 6.73425C20.1995 6.21815 20.2487 5.35518 19.7532 4.49925C19.2549 3.63768 18.4773 3.24581 18.0132 3.01284C17.9985 3.00542 17.9836 2.99819 17.9689 2.99087C17.9616 2.97604 17.9542 2.96121 17.9468 2.94637C17.7138 2.48241 17.3225 1.70466 16.4604 1.20591C15.9542 0.912938 15.3795 0.771516 14.7007 0.771516C14.5451 0.771516 14.3853 0.779208 14.2254 0.788086C14.2061 0.789094 14.1867 0.790284 14.1673 0.791381C14.1562 0.783966 14.1451 0.77655 14.134 0.769223C13.739 0.481406 13.0078 0 12 0C10.9922 0 10.2609 0.481406 9.82496 0.76875C9.81559 0.77625 9.80153 0.783281 9.79215 0.790781C9.7734 0.789375 9.75465 0.788438 9.7359 0.787031C9.57184 0.778594 9.41246 0.770625 9.25778 0.770625C8.57949 0.770625 8.00528 0.911812 7.49903 1.20478C6.63699 1.70344 6.24559 2.48109 6.01262 2.94516C6.0052 2.9599 5.99797 2.97464 5.99074 2.98938C5.976 2.99661 5.96116 3.00384 5.94643 3.01126C5.48246 3.24422 4.70481 3.63562 4.20559 4.49766C3.71012 5.35312 3.75887 6.21563 3.78793 6.73125C3.78894 6.75038 3.79022 6.76961 3.7915 6.78867C3.78371 6.80156 3.77668 6.81094 3.76918 6.825C3.48137 7.26094 3 7.99219 3 9C3 10.0078 3.48141 10.7386 3.76922 11.1755C3.77621 11.1844 3.78371 11.1984 3.79074 11.2078C3.78981 11.2266 3.7884 11.2453 3.78746 11.2641C3.7584 11.7797 3.70918 12.6422 4.20465 13.5C4.52528 14.0536 4.95699 14.4019 5.35028 14.6494L3.08059 20.3072C2.92824 20.691 2.9971 21.1266 3.26223 21.4439C3.47874 21.7023 3.79613 21.848 4.12426 21.848C4.19795 21.848 4.2722 21.8409 4.34607 21.8259L6.46435 21.4023L7.46888 23.3837C7.66215 23.7656 8.04371 24 8.47027 24C8.48639 24 8.5014 23.9995 8.51752 23.9987C8.96284 23.9811 9.34487 23.7136 9.51315 23.3012L11.6531 18H12.3867L14.4867 23.3016C14.6552 23.7139 15.037 23.9813 15.4823 23.9991C15.4968 23.9578 15.4734 24 15.5296 24C15.9559 24 16.3373 23.7669 16.5304 23.3841L17.535 21.4022L19.6532 21.8257C19.7271 21.8407 19.8014 21.8479 19.8751 21.8479C20.2036 21.8479 20.5205 21.7021 20.7371 21.4438C21.0022 21.1266 21.0711 20.6909 20.9187 20.307L18.6843 14.625ZM17.8453 12.375C17.5607 12.8667 16.7887 12.9909 16.3898 13.3903C15.991 13.7892 15.8662 14.5608 15.3745 14.8453C15.1909 14.9515 14.9723 14.9781 14.7412 14.9781C14.5108 14.9781 14.2682 14.9516 14.0362 14.9516C13.8868 14.9516 13.7417 14.9626 13.607 14.9986C13.0734 15.1406 12.5812 15.75 12 15.75C11.4197 15.75 10.9265 15.143 10.3912 14.9995C10.2562 14.9625 10.1109 14.9109 9.9609 14.9109C9.7291 14.9109 9.48699 14.9372 9.25684 14.9372C9.02565 14.9372 8.80674 14.9107 8.62309 14.8044C8.13277 14.5594 8.00621 13.7906 7.60824 13.3922C7.20934 12.9938 6.43777 12.8672 6.15324 12.375C5.87293 11.8922 6.14809 11.1609 6.00043 10.6078C5.85746 10.0734 5.24996 9.58125 5.24996 9C5.24996 8.41969 5.85746 7.92656 6.00043 7.39125C6.14828 6.83766 5.87335 6.10828 6.15404 5.62359C6.43871 5.13281 7.21027 5.00625 7.60965 4.60828C8.00856 4.20947 8.13324 3.43781 8.62496 3.15328C8.80853 3.04706 9.02715 3.02053 9.25824 3.02053C9.48868 3.02053 9.73121 3.04699 9.96324 3.04699C10.1127 3.04699 10.2578 3.036 10.3924 3.00002C10.9265 2.85703 11.4187 2.25 12 2.25C12.5807 2.25 13.0734 2.85703 13.6087 3.00047C13.7436 3.03654 13.8889 3.04753 14.0386 3.04753C14.2704 3.04753 14.5125 3.02126 14.7426 3.02126C14.9738 3.02126 15.1928 3.04781 15.3764 3.1541C15.8681 3.43854 15.9923 4.21066 16.3917 4.60957C16.7905 5.00857 17.5622 5.13316 17.8467 5.62488C18.1271 6.10957 17.8521 6.83895 18 7.39254C18.1453 7.92656 18.75 8.41875 18.75 9C18.75 9.58031 18.1429 10.0734 17.9995 10.6088C17.85 11.1609 18.1265 11.8922 17.8453 12.375ZM12 6C10.3453 6 8.99996 7.34062 8.99996 9C8.99996 10.6561 10.3429 12 12 12C13.657 12 15 10.6561 15 9C15 7.34062 13.6547 6 12 6Z" fill="black"/>
</svg>
