<svg width="29" height="32" viewBox="0 0 29 32" fill="none" xmlns="http://www.w3.org/2000/svg">
<path id="icon" d="M6.6665 18C6.6665 16.8937 7.56025 16 8.6665 16C9.77275 16 10.6665 16.8937 10.6665 18C10.6665 19.1063 9.77275 20 8.6665 20C7.56025 20 6.6665 19.1063 6.6665 18ZM20.6665 22C21.7728 22 22.6665 22.8937 22.6665 24C22.6665 25.1063 21.7728 26 20.6665 26C19.5603 26 18.6665 25.1063 18.6665 24C18.6665 22.8937 19.5603 22 20.6665 22ZM12.6665 18C12.6665 17.1688 13.3353 16.5 14.1665 16.5H21.1665C21.9978 16.5 22.6665 17.1688 22.6665 18C22.6665 18.8312 21.9978 19.5 21.1665 19.5H14.1665C13.3353 19.5 12.6665 18.8312 12.6665 18ZM15.1665 22.5C15.9978 22.5 16.6665 23.1688 16.6665 24C16.6665 24.8312 15.9978 25.5 15.1665 25.5H8.1665C7.33525 25.5 6.6665 24.8312 6.6665 24C6.6665 23.1688 7.33525 22.5 8.1665 22.5H15.1665ZM10.1665 4H19.1665V1.5C19.1665 0.671875 19.8353 0 20.6665 0C21.4978 0 22.1665 0.671875 22.1665 1.5V4H24.6665C26.8728 4 28.6665 5.79063 28.6665 8V28C28.6665 30.2062 26.8728 32 24.6665 32H4.6665C2.45713 32 0.666504 30.2062 0.666504 28V8C0.666504 5.79063 2.45713 4 4.6665 4H7.1665V1.5C7.1665 0.671875 7.83525 0 8.6665 0C9.49775 0 10.1665 0.671875 10.1665 1.5V4ZM3.6665 28C3.6665 28.55 4.114 29 4.6665 29H24.6665C25.2165 29 25.6665 28.55 25.6665 28V12H3.6665V28Z" fill="black"/>
</svg>
