<svg width="16" height="16" viewBox="0 0 16 16" fill="none" xmlns="http://www.w3.org/2000/svg">
<g id="icon/plus" clip-path="url(#clip0_323_3550)">
<path id="icon" d="M16 7.99962C16 8.51115 15.5885 8.92269 15.0769 8.92269H8.92308V15.0765C8.92308 15.5862 8.50962 16 8 16C7.49039 16 7.07692 15.5881 7.07692 15.0765V8.92269H0.923077C0.413462 8.92269 0 8.50962 0 8C0 7.49192 0.413462 7.07654 0.923077 7.07654H7.07692V0.922692C7.07692 0.413077 7.49039 0 8 0C8.50962 0 8.92308 0.413077 8.92308 0.922692V7.07654H15.0769C15.5885 7.07654 16 7.49192 16 7.99962Z" fill="white"/>
</g>
<defs>
<clipPath id="clip0_323_3550">
<rect width="16" height="16" fill="white"/>
</clipPath>
</defs>
</svg>
